<svg xmlns="http://www.w3.org/2000/svg" viewBox="0 0 1600 1000" preserveAspectRatio="xMidYMid slice">
  <defs>
    <linearGradient id="night" x1="0" y1="0" x2="0" y2="1">
      <stop offset="0" stop-color="#020617"/>
      <stop offset="0.5" stop-color="#0f214f"/>
      <stop offset="1" stop-color="#042f2e"/>
    </linearGradient>
    <linearGradient id="auroraA" x1="0" y1="0" x2="1" y2="1">
      <stop offset="0" stop-color="#22d3ee" stop-opacity="0"/>
      <stop offset="0.38" stop-color="#2dd4bf" stop-opacity="0.82"/>
      <stop offset="0.72" stop-color="#a78bfa" stop-opacity="0.5"/>
      <stop offset="1" stop-color="#22d3ee" stop-opacity="0"/>
    </linearGradient>
    <linearGradient id="auroraB" x1="0" y1="0" x2="1" y2="0">
      <stop offset="0" stop-color="#a78bfa" stop-opacity="0"/>
      <stop offset="0.5" stop-color="#38bdf8" stop-opacity="0.62"/>
      <stop offset="1" stop-color="#2dd4bf" stop-opacity="0"/>
    </linearGradient>
    <filter id="blur">
      <feGaussianBlur stdDeviation="10"/>
    </filter>
  </defs>
  <rect width="1600" height="1000" fill="url(#night)"/>
  <g fill="#e0f2fe" opacity="0.9">
    <circle cx="190" cy="140" r="3"/>
    <circle cx="340" cy="210" r="2"/>
    <circle cx="520" cy="130" r="3"/>
    <circle cx="810" cy="190" r="2"/>
    <circle cx="1060" cy="118" r="3"/>
    <circle cx="1320" cy="216" r="2"/>
  </g>
  <path d="M-40 300c230-150 380-92 570-48 252 58 420-84 668-132 160-31 284-12 442 42v190c-200-62-332-54-508 18-238 97-412 130-680 52-192-56-340-70-492 54Z" fill="url(#auroraA)" filter="url(#blur)" opacity="0.92"/>
  <path d="M-80 438c280-112 472-44 684 28 234 80 394 38 594-70 168-90 282-112 442-70v150c-198-30-324 24-492 118-242 136-450 104-672 2-188-86-330-108-556-10Z" fill="url(#auroraB)" filter="url(#blur)" opacity="0.78"/>
  <path d="M0 670 250 420l220 250H0Z" fill="#020617" opacity="0.88"/>
  <path d="M260 670 620 345l360 325H260Z" fill="#07111f"/>
  <path d="M830 670 1170 405l430 265H830Z" fill="#020617" opacity="0.9"/>
  <path d="M0 740c210-42 394-32 610 16 288 64 538 28 990-54v298H0Z" fill="#031c1f"/>
  <path d="M0 820c250 20 515 10 796-42 290-54 530-58 804-6" fill="none" stroke="#67e8f9" stroke-opacity="0.24" stroke-width="8"/>
</svg>
