<svg xmlns="http://www.w3.org/2000/svg" viewBox="0 0 1600 1000" preserveAspectRatio="xMidYMid slice">
  <defs>
    <linearGradient id="sky" x1="0" y1="0" x2="0" y2="1">
      <stop offset="0" stop-color="#77d3ff"/>
      <stop offset="0.62" stop-color="#ffd1e8"/>
      <stop offset="1" stop-color="#fff4b8"/>
    </linearGradient>
    <linearGradient id="hillA" x1="0" y1="0" x2="1" y2="1">
      <stop offset="0" stop-color="#86efac"/>
      <stop offset="1" stop-color="#22c55e"/>
    </linearGradient>
    <linearGradient id="hillB" x1="0" y1="0" x2="1" y2="1">
      <stop offset="0" stop-color="#34d399"/>
      <stop offset="1" stop-color="#0f766e"/>
    </linearGradient>
    <filter id="soft" x="-20%" y="-20%" width="140%" height="140%">
      <feDropShadow dx="0" dy="14" stdDeviation="12" flood-color="#0f172a" flood-opacity="0.12"/>
    </filter>
  </defs>
  <rect width="1600" height="1000" fill="url(#sky)"/>
  <circle cx="1270" cy="160" r="92" fill="#fde68a"/>
  <circle cx="1270" cy="160" r="132" fill="#fde68a" opacity="0.22"/>
  <g filter="url(#soft)" fill="#ffffff">
    <path d="M150 230c36-66 132-68 168-7 58-44 154-11 158 62 62-2 100 45 88 92H92c-30-54 8-120 58-147Z"/>
    <path d="M930 268c42-77 154-80 196-8 68-52 180-14 185 72 73-2 117 53 103 108H862c-35-63 10-141 68-172Z" opacity="0.86"/>
    <path d="M560 126c24-44 87-45 111-5 38-30 101-7 104 41 41-1 66 30 58 61H520c-20-36 5-79 40-97Z" opacity="0.78"/>
  </g>
  <path d="M0 690c178-150 338-190 520-110 114 50 196 124 342 106 170-22 278-150 478-132 104 10 190 48 260 92v354H0Z" fill="url(#hillA)"/>
  <path d="M0 790c180-88 336-84 520-36 218 56 390 120 650 42 160-48 290-54 430 2v202H0Z" fill="url(#hillB)"/>
  <g fill="#fff7ed" opacity="0.9">
    <circle cx="260" cy="640" r="30"/>
    <circle cx="323" cy="628" r="18"/>
    <circle cx="1160" cy="594" r="24"/>
    <circle cx="1210" cy="584" r="14"/>
  </g>
  <path d="M278 665c30 42 90 42 120 0" fill="none" stroke="#0f766e" stroke-width="10" stroke-linecap="round" opacity="0.36"/>
  <path d="M1210 620c30 32 76 31 105-2" fill="none" stroke="#0f766e" stroke-width="9" stroke-linecap="round" opacity="0.34"/>
</svg>
