<svg xmlns="http://www.w3.org/2000/svg" viewBox="0 0 1600 1000" preserveAspectRatio="xMidYMid slice">
  <defs>
    <linearGradient id="sky" x1="0" y1="0" x2="0" y2="1">
      <stop offset="0" stop-color="#7dd3fc"/>
      <stop offset="0.52" stop-color="#bae6fd"/>
      <stop offset="1" stop-color="#fef3c7"/>
    </linearGradient>
    <linearGradient id="sea" x1="0" y1="0" x2="0" y2="1">
      <stop offset="0" stop-color="#06b6d4"/>
      <stop offset="1" stop-color="#0f766e"/>
    </linearGradient>
    <linearGradient id="sand" x1="0" y1="0" x2="1" y2="1">
      <stop offset="0" stop-color="#fde68a"/>
      <stop offset="1" stop-color="#fbbf24"/>
    </linearGradient>
  </defs>
  <rect width="1600" height="1000" fill="url(#sky)"/>
  <circle cx="1235" cy="150" r="94" fill="#fef08a"/>
  <circle cx="1235" cy="150" r="150" fill="#fde68a" opacity="0.22"/>
  <path d="M0 460c244-44 410-18 620-42 258-29 466-92 980-34v616H0Z" fill="url(#sea)"/>
  <path d="M0 555c270 64 490 20 745 0 312-25 538 22 855 10" fill="none" stroke="#cffafe" stroke-opacity="0.72" stroke-width="12"/>
  <path d="M0 640c260 54 470 18 705-4 330-31 586 24 895 14" fill="none" stroke="#ecfeff" stroke-opacity="0.54" stroke-width="10"/>
  <path d="M0 760c268-100 472-78 696-34 300 58 542 86 904-24v298H0Z" fill="url(#sand)"/>
  <path d="M0 816c246-58 504-36 772 6 272 43 506 24 828-72" fill="none" stroke="#fff7ed" stroke-opacity="0.5" stroke-width="10"/>
  <g>
    <path d="M500 440h140l-70-170Z" fill="#fff7ed"/>
    <path d="M570 270v232" stroke="#0f172a" stroke-opacity="0.55" stroke-width="6"/>
    <path d="M570 440h125" stroke="#0f172a" stroke-opacity="0.55" stroke-width="6"/>
    <path d="M468 502c74 30 168 30 242 0-24 46-68 72-121 72s-97-26-121-72Z" fill="#92400e"/>
  </g>
  <g fill="#0f766e" opacity="0.75">
    <path d="M1330 730c24-86 78-160 156-208-46 74-64 150-54 232Z"/>
    <path d="M1300 746c-16-92 2-180 50-262 8 86 0 170-24 252Z"/>
  </g>
</svg>
