<svg xmlns="http://www.w3.org/2000/svg" viewBox="0 0 1600 1000" preserveAspectRatio="xMidYMid slice">
  <defs>
    <linearGradient id="sky" x1="0" y1="0" x2="0" y2="1">
      <stop offset="0" stop-color="#93c5fd"/>
      <stop offset="0.55" stop-color="#d9f99d"/>
      <stop offset="1" stop-color="#14532d"/>
    </linearGradient>
    <linearGradient id="water" x1="0" y1="0" x2="1" y2="1">
      <stop offset="0" stop-color="#67e8f9"/>
      <stop offset="1" stop-color="#0f766e"/>
    </linearGradient>
    <linearGradient id="snow" x1="0" y1="0" x2="1" y2="1">
      <stop offset="0" stop-color="#f8fafc"/>
      <stop offset="1" stop-color="#bae6fd"/>
    </linearGradient>
  </defs>
  <rect width="1600" height="1000" fill="url(#sky)"/>
  <circle cx="1265" cy="154" r="88" fill="#fef08a"/>
  <circle cx="1265" cy="154" r="160" fill="#fef08a" opacity="0.16"/>
  <path d="M-40 650 250 280l255 370Z" fill="#1e3a8a" opacity="0.72"/>
  <path d="M180 650 590 205l405 445Z" fill="#0f3b69"/>
  <path d="M720 650 1120 260l530 390Z" fill="#164e63"/>
  <path d="m250 280 78 100-70-28-60 78Z" fill="url(#snow)" opacity="0.9"/>
  <path d="m590 205 118 130-104-42-92 132Z" fill="url(#snow)" opacity="0.92"/>
  <path d="m1120 260 132 116-126-38-104 128Z" fill="url(#snow)" opacity="0.88"/>
  <path d="M0 590c190-68 330-35 512-76 220-50 360-118 586-70 188 40 324 116 502 56v500H0Z" fill="#166534"/>
  <path d="M0 716c210-82 370-58 560-10 235 60 420 104 690 16 145-47 250-52 350-16v294H0Z" fill="#14532d"/>
  <path d="M0 765c290-44 476-28 714-66 246-40 458-82 886-8v309H0Z" fill="url(#water)" opacity="0.78"/>
  <path d="M110 818c210 22 432 20 688-14 296-40 510-44 694 12" fill="none" stroke="#ecfeff" stroke-opacity="0.32" stroke-width="7"/>
  <g fill="#052e16">
    <path d="M190 650h54l-27-110Z"/>
    <path d="M260 680h68l-34-136Z"/>
    <path d="M1320 640h54l-27-110Z"/>
    <path d="M1390 686h76l-38-154Z"/>
  </g>
</svg>
